# AST/ASF file generated using VICON BodyLanguage
# -----------------------------------------------
:version 1.10
:name VICON
:units
  mass 1.0
  length 0.45
  angle deg
:documentation
   .ast/.asf automatically generated from VICON data using
   VICON BodyBuilder and BodyLanguage model FoxedUp or BRILLIANT.MOD
:root
   order TX TY TZ RX RY RZ
   axis XYZ
   position 0 0 0  
   orientation 0 0 0 
:bonedata
  begin
     id 1 
     name lhipjoint
     direction 0.677091 -0.635792 0.370561 
     length 2.74323 
     axis 0 0 0  XYZ
  end
  begin
     id 2 
     name lfemur
     direction 0.34202 -0.939693 0  
     length 7.44995  
     axis 0 0 20  XYZ
    dof rx ry rz
    limits (-160.0 20.0)
           (-70.0 70.0)
           (-60.0 70.0)
  end
  begin
     id 3 
     name ltibia
     direction 0.34202 -0.939693 0   
     length 7.34467   
     axis 0 0 20   XYZ
    dof rx
    limits (-10.0 170.0)
  end
  begin
     id 4 
     name lfoot
     direction 0.101953 -0.280114 0.954537   
     length 1.72105   
     axis -90 7.62852e-016 20   XYZ
    dof rx rz
    limits (-45.0 90.0)
           (-70.0 20.0)
  end
  begin
     id 5 
     name ltoes
     direction 1.53537e-011 -4.21915e-011 1   
     length 0.865872   
     axis -90 7.62852e-016 20   XYZ
    dof rx
    limits (-90.0 20.0)
  end
  begin
     id 6 
     name rhipjoint
     direction -0.695735 -0.620586 0.361699   
     length 2.81045  
     axis 0 0 0  XYZ 
  end
  begin
     id 7 
     name rfemur
     direction -0.34202 -0.939693 0   
     length 7.29387   
     axis 0 0 -20   XYZ
    dof rx ry rz
    limits (-160.0 20.0)
           (-70.0 70.0)
           (-70.0 60.0)
  end
  begin
     id 8 
     name rtibia
     direction -0.34202 -0.939693 0   
     length 7.44935   
     axis 0 0 -20   XYZ
    dof rx
    limits (-10.0 170.0)
 end
 begin
     id 9 
     name rfoot
     direction -0.104163 -0.286184 0.952496   
     length 1.77731  
     axis -90 -7.62852e-016 -20   XYZ
    dof rx rz
    limits (-45.0 90.0)
           (-20.0 70.0)
  end
  begin
     id 10 
     name rtoes
     direction -1.5355e-011 -4.21888e-011 1   
     length 0.892424   
     axis -90 -7.62852e-016 -20   XYZ
    dof rx
    limits (-90.0 20.0)
  end
  begin
     id 11 
     name lowerback
     direction 0.0100202 0.997226 -0.0737589   
     length 2.16892   
     axis 0 0 0   XYZ
    dof rx ry rz
    limits (-20.0 45.0)
           (-30.0 30.0)
           (-30.0 30.0)
  end
  begin
     id 12 
     name upperback
     direction 0.00432398 0.999988 -0.00215019   
     length 2.17326   
     axis 0 0 0   XYZ
    dof rx ry rz
    limits (-20.0 45.0)
           (-30.0 30.0)
           (-30.0 30.0)
  end
  begin
     id 13 
     name thorax
     direction -0.00195047 0.999485 0.0320434   
     length 2.18139   
     axis 0 0 0   XYZ
    dof rx ry rz
    limits (-20.0 45.0)
           (-30.0 30.0)
           (-30.0 30.0)
  end
  begin
     id 14 
     name lowerneck
     direction 0.00782762 0.986241 0.165128   
     length 1.88415   
     axis 0 0 0   XYZ
    dof rx ry rz
    limits (-20.0 45.0)
           (-30.0 30.0)
           (-30.0 30.0)
  end
  begin
     id 15 
     name upperneck
     direction 0.00988667 0.981098 -0.193258   
     length 1.9242   
     axis 0 0 0   XYZ
    dof rx ry rz
    limits (-20.0 45.0)
           (-30.0 30.0)
           (-30.0 30.0)
  end
  begin
     id 16
     name head
     direction 0.00252199 0.996513 -0.0833958  
     length 1.93887  
     axis 0 0 0   XYZ
    dof rx ry rz
    limits (-20.0 45.0)
           (-30.0 30.0)
           (-30.0 30.0)
  end
  begin
     id 17 
     name lclavicle
     direction 0.929492 0.368193 -0.0218667  
     length 3.5955  
     axis 0 0 0   XYZ
    dof ry rz
    limits (-20.0 10.0)
           (0.0 20.0)
  end
  begin
     id 18 
     name lhumerus
     direction 1 -4.48972e-011 1.41911e-027   
     length 5.2795   
     axis 180 -30 -90   XYZ
    dof rx ry rz
    limits (-60.0 90.0)
           (-90.0 90.0)
           (-90.0 90.0)
  end
  begin
     id 19
     name lradius
     direction 1 -4.48963e-011 7.05772e-027   
     length 3.53504   
     axis 180 -30 -90   XYZ
    dof rx
    limits (-10.0 170.0)
  end
  begin
     id 20
     name lwrist
     direction 1 -4.48957e-011 9.54866e-027   
     length 1.76752   
     axis -7.69462e-015 90 90   XYZ
    dof ry
    limits (-180.0 0.0)
 end
  begin
     id 21 
     name lhand
     direction 1 -4.48979e-011 1.90973e-026   
     length 0.667948   
     axis -1.21857e-014 90 90   XYZ
    dof rx rz
    limits (-90.0 90.0)
           (-45.0 45.0)
  end
  begin
     id 22 
     name lfingers
     direction 1 -4.48987e-011 3.81946e-026   
     length 0.538517   
     axis -2.43714e-014 90 90   XYZ
    dof rx
    limits (0.0 90.0)
  end
  begin
     id 23
     name lthumb
     direction 0.707107 -6.34962e-011 0.707107   
     length 0.773206   
     axis -90 45 2.85299e-015   XYZ
    dof rx rz
    limits (-45.0 45.0)
           (-45.0 45.0)
  end
  begin
     id 24 
     name rclavicle
     direction -0.898763 0.414256 -0.143584   
     length 3.5176  
     axis 0 0 0   XYZ 
    dof ry rz
    limits (-10.0 20.0)
           (-20.0 0.0)
  end
  begin
     id 25 
     name rhumerus
     direction -1 -4.48971e-011 1.129e-027  
     length 5.25035   
     axis 180 30 90   XYZ
    dof rx ry rz
    limits (-90.0 60.0)
           (-90.0 90.0)
           (-90.0 90.0)
  end
  begin
     id 26 
     name rradius
     direction -1 -4.48955e-011 6.34664e-027   
     length 3.58884   
     axis 180 30 90   XYZ
    dof rx
    limits (-10.0 170.0)
  end
  begin
     id 27 
     name rwrist
     direction -1 -4.48966e-011 9.54866e-027   
     length 1.79442   
     axis -7.69462e-015 -90 -90   XYZ
    dof ry
    limits (-180.0 0.0)
  end
  begin
     id 28
     name rhand
     direction -1 -4.48973e-011 1.90973e-026   
     length 0.779235   
     axis -1.21857e-014 -90 -90   XYZ
    dof rx rz
    limits (-90.0 90.0)
           (-45.0 45.0)
  end
  begin
     id 29
     name rfingers
     direction -1 -4.48984e-011 3.81946e-026   
     length 0.62824   
     axis -2.43714e-014 -90 -90   XYZ
    dof rx
    limits (0.0 90.0)
  end
  begin
     id 30
     name rthumb
     direction -0.707107 -6.34968e-011 0.707107   
     length 0.90203   
     axis -90 -45 -2.85299e-015   XYZ
    dof rx rz
    limits (-45.0 45.0)
           (-45.0 45.0)
  end
:hierarchy
  begin
    root lhipjoint rhipjoint lowerback
    lhipjoint lfemur
    lfemur ltibia
    ltibia lfoot
    lfoot ltoes
    rhipjoint rfemur
    rfemur rtibia
    rtibia rfoot
    rfoot rtoes
    lowerback upperback
    upperback thorax
    thorax lowerneck lclavicle rclavicle
    lowerneck upperneck
    upperneck head
    lclavicle lhumerus
    lhumerus lradius
    lradius lwrist
    lwrist lhand lthumb
    lhand lfingers
    rclavicle rhumerus
    rhumerus rradius
    rradius rwrist
    rwrist rhand rthumb
    rhand rfingers
  end

#!OML:ASF I:\Random Stuff\random\construction\7_22_03\Session 2\subj1.ASF
:FULLY-SPECIFIED
:DEGREES
722
root 4.69165 17.3757 -10.4285 36.6838 -11.7055 -9.6339
lowerback 33.7961 -0.658613 -5.84231
upperback 12.0685 -3.37667 -7.89005
thorax -4.13944 -1.58466 -4.06506
lowerneck -14.0283 -2.59627 -10.9384
upperneck 30.6872 -0.0440662 -1.77287
head 12.6456 -1.49281 1.1898
rclavicle -1.59028e-014 -9.54166e-015
rhumerus -22.0516 11.5393 -49.1721
rradius 125.902
rwrist 18.6089
rhand -15.6245 25.1812
rfingers 7.12502
rthumb 10.5624 -4.53339
lclavicle -1.59028e-014 -9.54166e-015
lhumerus 33.0976 -53.6166 62.326
lradius 81.7816
lwrist 95.0813
lhand -6.51353 55.3983
lfingers 7.12502
lthumb -160.661 1344.46
rfemur -50.9384 -5.77815 40.088
rtibia 17.0659
rfoot -2.76295 6.412
rtoes -15.0124
lfemur -54.9969 4.32822 1.29646
ltibia 36.5337
lfoot -13.1701 5.34006
ltoes -33.5208
723
root 4.6926 17.3754 -10.431 36.648 -11.6736 -9.62953
lowerback 33.8363 -0.622722 -5.83133
upperback 12.0831 -3.3307 -7.87184
thorax -4.13564 -1.56293 -4.06682
lowerneck -13.9928 -2.72097 -11.0259
upperneck 30.6622 -0.211513 -1.72747
head 12.6385 -1.56645 1.19765
rclavicle 4.77083e-014 2.42517e-014
rhumerus -21.9221 11.978 -49.3004
rradius 125.716
rwrist 16.509
rhand -16.6654 22.9615
rfingers 7.12502
rthumb 9.55817 -6.80168
lclavicle 4.77083e-014 2.42517e-014
lhumerus 33.1366 -53.7363 62.4386
lradius 81.6871
lwrist 95.075
lhand -6.50055 55.426
lfingers 7.12502
lthumb -160.649 1344.48
rfemur -50.9482 -5.80481 40.0897
rtibia 17.1337
rfoot -2.80157 6.38153
rtoes -14.9974
lfemur -54.9811 4.25149 1.34337
ltibia 36.535
lfoot -13.1643 5.37293
ltoes -33.6646
724
root 4.69275 17.3769 -10.4327 36.5907 -11.6464 -9.64224
lowerback 33.8805 -0.564864 -5.81071
upperback 12.1127 -3.2542 -7.84745
thorax -4.116 -1.52721 -4.0776
lowerneck -13.8752 -2.84636 -11.0069
upperneck 30.637 -0.377852 -1.81723
head 12.6138 -1.64347 1.13667
rclavicle 5.08889e-014 4.69132e-014
rhumerus -21.8736 12.4197 -49.4118
rradius 125.343
rwrist 14.2486
rhand -18.4565 21.4457
rfingers 7.12502
rthumb 7.82976 -8.38927
lclavicle 5.08889e-014 4.69132e-014
lhumerus 33.2721 -53.8893 62.4712
lradius 81.5967
lwrist 95.4091
lhand -6.6311 55.41
lfingers 7.12502
lthumb -160.774 1344.48
rfemur -50.9142 -5.81857 40.0911
rtibia 17.1919
rfoot -2.84285 6.35176
rtoes -14.7963
lfemur -54.9308 4.22955 1.36696
ltibia 36.5292
lfoot -13.1577 5.34932
ltoes -33.9483
725
root 4.69383 17.3764 -10.4338 36.5249 -11.61 -9.62144
lowerback 33.9363 -0.517014 -5.80691
upperback 12.135 -3.19601 -7.82219
thorax -4.10788 -1.49999 -4.07233
lowerneck -13.7858 -2.94022 -10.9943
upperneck 30.6216 -0.504385 -1.876
head 12.5963 -1.70121 1.09439
rclavicle 3.49861e-014 -1.86858e-014
rhumerus -21.8777 12.7414 -49.5157
rradius 125.075
rwrist 11.5544
rhand -19.6933 20.4708
rfingers 7.12502
rthumb 6.63591 -9.40519
lclavicle 3.49861e-014 -1.86858e-014
lhumerus 33.2882 -54.0004 62.5778
lradius 81.6097
lwrist 95.6922
lhand -6.76932 55.2916
lfingers 7.12502
lthumb -160.907 1344.37
rfemur -50.8813 -5.86528 40.0717
rtibia 17.2208
rfoot -2.86145 6.32317
rtoes -14.8138
lfemur -54.8892 4.18309 1.35962
ltibia 36.518
lfoot -13.1443 5.34655
ltoes -34.0339
726
root 4.69461 17.375 -10.4348 36.4848 -11.5851 -9.596
lowerback 33.9873 -0.437041 -5.82499
upperback 12.1423 -3.10492 -7.7784
thorax -4.10974 -1.45794 -4.04691
lowerneck -13.7422 -3.01689 -10.9495
upperneck 30.6536 -0.599709 -1.95657
head 12.6057 -1.74689 1.0424
rclavicle 2.8625e-014 3.18055e-015
rhumerus -22.0195 12.6995 -49.5719
rradius 124.994
rwrist 8.95334
rhand -19.9593 19.4154
rfingers 7.12502
rthumb 6.37914 -10.4686
lclavicle 2.8625e-014 3.18055e-015
lhumerus 33.2365 -54.0709 62.8647
lradius 81.5447
lwrist 95.6315
lhand -6.59044 55.3344
lfingers 7.12502
lthumb -160.735 1344.4
rfemur -50.8655 -5.92547 40.0723
rtibia 17.2198
rfoot -2.86013 6.34838
rtoes -14.9012
lfemur -54.8657 4.12059 1.36148
ltibia 36.5034
lfoot -13.1245 5.38968
ltoes -34.0496
727
root 4.69518 17.3745 -10.4358 36.4738 -11.5737 -9.57365
lowerback 34.004 -0.333604 -5.82342
upperback 12.1528 -2.97614 -7.73256
thorax -4.09557 -1.39826 -4.0426
lowerneck -13.7205 -3.10429 -10.8326
upperneck 30.7121 -0.695156 -2.12919
head 12.63 -1.79663 0.942644
rclavicle 3.81667e-014 5.84427e-014
rhumerus -22.371 12.2836 -49.5331
rradius 125.108
rwrist 7.02744
rhand -19.5216 18.2573
rfingers 7.12502
rthumb 6.8017 -11.6134
lclavicle 3.81667e-014 5.84427e-014
lhumerus 33.2938 -54.1784 63.1001
lradius 81.4854
lwrist 95.1825
lhand -6.34039 55.5137
lfingers 7.12502
lthumb -160.495 1344.56
rfemur -50.8806 -5.98916 40.0995
rtibia 17.2239
rfoot -2.89924 6.40487
rtoes -15.2735
lfemur -54.8674 4.08837 1.34946
ltibia 36.4886
lfoot -13.1387 5.38504
ltoes -33.7814
728
root 4.69556 17.3747 -10.4377 36.5002 -11.5876 -9.56127
lowerback 33.9771 -0.24188 -5.83211
upperback 12.1615 -2.86248 -7.70526
thorax -4.06905 -1.34598 -4.04769
lowerneck -13.7597 -3.17227 -10.7355
upperneck 30.7839 -0.761971 -2.26203
head 12.6707 -1.83267 0.86475
rclavicle -2.54444e-014 -7.91163e-014
rhumerus -22.811 11.7427 -49.4311
rradius 125.356
rwrist 5.80419
rhand -18.8729 17.2386
rfingers 7.12502
rthumb 7.42783 -12.611
lclavicle -2.54444e-014 -7.91163e-014
lhumerus 33.4401 -54.2819 63.1247
lradius 81.5824
lwrist 94.6848
lhand -6.32994 55.6155
lfingers 7.12502
lthumb -160.485 1344.66
rfemur -50.9374 -5.99492 40.1129
rtibia 17.2459
rfoot -2.95165 6.42815
rtoes -15.566
lfemur -54.8954 4.09872 1.33021
ltibia 36.4693
lfoot -13.1497 5.30265
ltoes -33.2059
729
root 4.69541 17.3746 -10.4419 36.5786 -11.6203 -9.55991
lowerback 33.9096 -0.184741 -5.86939
upperback 12.1497 -2.7994 -7.7057
thorax -4.0522 -1.31748 -4.05004
lowerneck -13.7902 -3.18335 -10.6858
upperneck 30.7971 -0.773338 -2.29823
head 12.6823 -1.8367 0.840518
rclavicle 2.22639e-014 9.70069e-014
rhumerus -23.2021 11.2558 -49.3159
rradius 125.646
rwrist 4.66775
rhand -18.1832 16.4275
rfingers 7.12502
rthumb 8.09354 -13.3975
lclavicle 2.22639e-014 9.70069e-014
lhumerus 33.5725 -54.3298 62.9854
lradius 81.7011
lwrist 94.5392
lhand -6.43344 55.608
lfingers 7.12502
lthumb -160.584 1344.66
rfemur -51.0479 -5.92667 40.1012
rtibia 17.2836
rfoot -2.96209 6.40097
rtoes -15.4438
lfemur -54.9684 4.17551 1.2948
ltibia 36.44
lfoot -13.1231 5.20984
ltoes -32.88
730
root 4.69629 17.3752 -10.4467 36.6358 -11.6516 -9.52506
lowerback 33.8537 -0.152457 -5.90666
upperback 12.1409 -2.76821 -7.72239
thorax -4.03874 -1.30334 -4.05884
lowerneck -13.7419 -3.15479 -10.6154
upperneck 30.7216 -0.751707 -2.33519
head 12.6381 -1.82033 0.819052
rclavicle -2.22639e-014 5.1684e-014
rhumerus -23.5841 10.79 -49.1054
rradius 125.948
rwrist 3.27011
rhand -17.5173 15.5525
rfingers 7.12502
rthumb 8.73619 -14.2467
lclavicle -2.22639e-014 5.1684e-014
lhumerus 33.7327 -54.4011 62.7361
lradius 81.7771
lwrist 94.6071
lhand -6.67183 55.5083
lfingers 7.12502
lthumb -160.814 1344.58
rfemur -51.1515 -5.8689 40.0356
rtibia 17.3274
rfoot -2.93019 6.3391
rtoes -15.2146
lfemur -55.0325 4.21314 1.23464
ltibia 36.4066
lfoot -13.1145 5.20678
ltoes -32.8555
731
root 4.69876 17.377 -10.4505 36.6303 -11.6542 -9.47218
lowerback 33.8735 -0.14195 -5.91507
upperback 12.1462 -2.76035 -7.7365
thorax -4.04027 -1.29897 -4.07198
lowerneck -13.7031 -3.10992 -10.5366
upperneck 30.6348 -0.708154 -2.37606
head 12.5901 -1.79381 0.797895
rclavicle -1.145e-013 4.21423e-014
rhumerus -23.9767 10.3203 -48.8047
rradius 126.223
rwrist 1.95815
rhand -17.2622 13.9009
rfingers 7.12502
rthumb 8.98229 -15.8879
lclavicle -1.145e-013 4.21423e-014
lhumerus 34.0251 -54.4945 62.3993
lradius 81.8061
lwrist 94.6773
lhand -7.04342 55.4461
lfingers 7.12502
lthumb -161.171 1344.55
rfemur -51.1956 -5.87286 39.9569
rtibia 17.3702
rfoot -2.89341 6.2988
rtoes -14.9399
lfemur -55.047 4.15916 1.19552
ltibia 36.379
lfoot -13.1219 5.26709
ltoes -33.0612
732
root 4.70257 17.3777 -10.4534 36.5983 -11.5916 -9.47916
lowerback 33.9909 -0.176341 -5.84439
upperback 12.1453 -2.79278 -7.74745
thorax -4.09115 -1.31077 -4.10886
lowerneck -13.7422 -3.05243 -10.4759
upperneck 30.5807 -0.639312 -2.38788
head 12.5709 -1.75723 0.793386
rclavicle -9.54166e-015 2.90226e-014
rhumerus -24.3501 9.9405 -48.4963
rradius 126.433
rwrist 1.23543
rhand -16.9662 15.4991
rfingers 7.12502
rthumb 9.26797 -14.2772
lclavicle -9.54166e-015 2.90226e-014
lhumerus 34.4426 -54.5245 61.9654
lradius 81.7529
lwrist 94.6235
lhand -7.16702 55.4719
lfingers 7.12502
lthumb -161.29 1344.59
rfemur -51.1944 -5.93904 39.9939
rtibia 17.4007
rfoot -2.89588 6.32979
rtoes -14.7544
lfemur -55.0448 4.0917 1.24314
ltibia 36.3679
lfoot -13.1543 5.29312
ltoes -33.0993
733
root 4.70615 17.3769 -10.4563 36.6063 -11.5239 -9.52244
lowerback 34.0754 -0.247487 -5.76395
upperback 12.1363 -2.86518 -7.77137
thorax -4.14231 -1.3412 -4.15108
lowerneck -13.8579 -2.96759 -10.391
upperneck 30.5701 -0.50823 -2.45976
head 12.5834 -1.70139 0.769657
rclavicle 2.22639e-014 3.93594e-014
rhumerus -24.6432 9.70186 -48.1789
rradius 126.543
rwrist 1.13369
rhand -17.1205 15.6374
rfingers 7.12502
rthumb 9.11911 -14.1455
lclavicle 2.22639e-014 3.93594e-014
lhumerus 34.8343 -54.4592 61.4693
lradius 81.6366
lwrist 94.3801
lhand -6.86154 55.4882
lfingers 7.12502
lthumb -160.996 1344.58
rfemur -51.2125 -5.97286 40.0738
rtibia 17.4036
rfoot -2.90237 6.35694
rtoes -14.5708
lfemur -55.0885 4.08246 1.30944
ltibia 36.3839
lfoot -13.1239 5.22006
ltoes -33.0626
734
root 4.70778 17.3747 -10.4601 36.6595 -11.5137 -9.53507
lowerback 34.0495 -0.302269 -5.76573
upperback 12.132 -2.93186 -7.79944
thorax -4.14242 -1.37205 -4.15749
lowerneck -13.9517 -2.88789 -10.3525
upperneck 30.572 -0.366755 -2.55397
head 12.5979 -1.64932 0.74682
rclavicle 6.36111e-015 3.10104e-014
rhumerus -24.849 9.53203 -47.8356
rradius 126.565
rwrist 1.38583
rhand -17.6584 16.7749
rfingers 7.12502
rthumb 8.60001 -13.0299
lclavicle 6.36111e-015 3.10104e-014
lhumerus 35.2163 -54.3774 60.8861
lradius 81.5121
lwrist 94.1601
lhand -6.60661 55.462
lfingers 7.12502
lthumb -160.751 1344.53
rfemur -51.2363 -5.91722 40.0712
rtibia 17.3275
rfoot -2.87266 6.30975
rtoes -14.818
lfemur -55.2017 4.14234 1.29448
ltibia 36.4621
lfoot -13.0681 5.15015
ltoes -33.3684
735
root 4.70895 17.3711 -10.4643 36.7029 -11.5094 -9.55322
lowerback 34.0135 -0.356266 -5.74375
upperback 12.1248 -2.99121 -7.8409
thorax -4.14474 -1.39866 -4.19294
lowerneck -13.9683 -2.83355 -10.371
upperneck 30.5846 -0.273034 -2.58855
head 12.6035 -1.61648 0.750074
rclavicle 3.81667e-014 5.4467e-014
rhumerus -25.028 9.45568 -47.5185
rradius 126.614
rwrist 1.84372
rhand -17.2247 19.9852
rfingers 7.12502
rthumb 9.01854 -9.80206
lclavicle 3.81667e-014 5.4467e-014
lhumerus 35.6777 -54.3178 60.1682
lradius 81.4379
lwrist 94.0968
lhand -6.64345 55.4165
lfingers 7.12502
lthumb -160.786 1344.49
rfemur -51.2064 -5.85561 40.0725
rtibia 17.1736
rfoot -2.80995 6.27038
rtoes -15.5184
lfemur -55.3265 4.18144 1.30229
ltibia 36.5973
lfoot -13.1111 5.186
ltoes -33.6424
736
root 4.71064 17.3609 -10.4671 36.7489 -11.4953 -9.59979
lowerback 33.9783 -0.429332 -5.67318
upperback 12.0997 -3.06242 -7.89901
thorax -4.17241 -1.4291 -4.267
lowerneck -13.9374 -2.78869 -10.3986
upperneck 30.6285 -0.19471 -2.62231
head 12.613 -1.59217 0.753099
rclavicle 6.36111e-015 4.37326e-015
rhumerus -25.1581 9.54193 -47.2432
rradius 126.697
rwrist 2.68758
rhand -16.873 22.4083
rfingers 7.12502
rthumb 9.35786 -7.36394
lclavicle 6.36111e-015 4.37326e-015
lhumerus 36.1496 -54.2489 59.4381
lradius 81.4007
lwrist 94.1734
lhand -6.62088 55.3382
lfingers 7.12502
lthumb -160.765 1344.41
rfemur -51.2338 -5.91913 40.2723
rtibia 17.0524
rfoot -2.91432 6.39735
rtoes -18.3256
lfemur -55.4458 4.20902 1.36188
ltibia 36.7229
lfoot -13.1596 5.19397
ltoes -33.6333
